<svg width="32" height="32" fill="none" xmlns="http://www.w3.org/2000/svg"><g clip-path="url(#clip0_20_513)"><path d="M25.334 12L27 8.333l3.667-1.666L27 5l-1.666-3.667L23.666 5 20 6.667l3.667 1.666L25.333 12zm-10 .667L12 5.333l-3.333 7.334L1.334 16l7.333 3.333L12 26.667l3.334-7.334L22.666 16l-7.334-3.333zm10 7.333l-1.667 3.667L20 25.333 23.667 27l1.666 3.667L27 27l3.667-1.667L27 23.667 25.334 20z" fill="#000"/></g><defs><clipPath id="clip0_20_513"><path fill="#fff" d="M0 0h32v32H0z"/></clipPath></defs></svg>